<svg width="208" height="53" viewBox="0 0 208 53" fill="none" xmlns="http://www.w3.org/2000/svg">
<rect x="0.5" y="0.5" width="191" height="52" fill="white" stroke="black"/>
<rect x="79" width="129" height="53" fill="black"/>
<path d="M25.864 32.624H25.648C25.504 32.976 25.328 33.312 25.12 33.632C24.912 33.952 24.656 34.24 24.352 34.496C24.048 34.736 23.688 34.928 23.272 35.072C22.872 35.216 22.416 35.288 21.904 35.288C21.088 35.288 20.36 35.096 19.72 34.712C19.096 34.328 18.568 33.768 18.136 33.032C17.704 32.296 17.376 31.4 17.152 30.344C16.944 29.288 16.84 28.096 16.84 26.768C16.84 23.92 17.36 21.744 18.4 20.24C19.44 18.72 21.048 17.96 23.224 17.96C24.088 17.96 24.848 18.08 25.504 18.32C26.16 18.544 26.72 18.872 27.184 19.304C27.664 19.72 28.056 20.224 28.36 20.816C28.664 21.408 28.904 22.064 29.08 22.784L25.72 23.6C25.624 23.248 25.512 22.912 25.384 22.592C25.272 22.256 25.12 21.96 24.928 21.704C24.736 21.448 24.496 21.248 24.208 21.104C23.92 20.944 23.568 20.864 23.152 20.864C22.24 20.864 21.592 21.24 21.208 21.992C20.84 22.744 20.656 23.8 20.656 25.16V27.896C20.656 29.256 20.856 30.344 21.256 31.16C21.672 31.976 22.4 32.384 23.44 32.384C24.256 32.384 24.864 32.144 25.264 31.664C25.664 31.184 25.864 30.568 25.864 29.816V28.592H23.008V26.048H29.08V35H25.864V32.624ZM34.5906 35V32.336H38.1906V20.912H34.5906V18.248H45.3906V20.912H41.7906V32.336H45.3906V35H34.5906ZM58.5812 21.2V35H54.9812V21.2H50.1572V18.248H63.4053V21.2H58.5812Z" fill="black"/>
<path d="M101.584 36.288C99.344 36.288 97.68 35.536 96.592 34.032C95.52 32.512 94.984 30.376 94.984 27.624C94.984 24.872 95.52 22.744 96.592 21.24C97.68 19.72 99.344 18.96 101.584 18.96C102.448 18.96 103.208 19.08 103.864 19.32C104.536 19.544 105.112 19.864 105.592 20.28C106.072 20.696 106.464 21.2 106.768 21.792C107.088 22.384 107.336 23.048 107.512 23.784L104.152 24.6C104.056 24.2 103.944 23.832 103.816 23.496C103.688 23.16 103.52 22.872 103.312 22.632C103.12 22.392 102.872 22.208 102.568 22.08C102.28 21.936 101.928 21.864 101.512 21.864C100.536 21.864 99.84 22.248 99.424 23.016C99.024 23.768 98.824 24.816 98.824 26.16V29.088C98.824 30.432 99.024 31.488 99.424 32.256C99.84 33.008 100.536 33.384 101.512 33.384C102.344 33.384 102.944 33.128 103.312 32.616C103.696 32.104 103.976 31.448 104.152 30.648L107.512 31.464C107.336 32.2 107.088 32.864 106.768 33.456C106.464 34.048 106.072 34.56 105.592 34.992C105.112 35.408 104.536 35.728 103.864 35.952C103.208 36.176 102.448 36.288 101.584 36.288ZM121.231 36L120.175 31.968H115.591L114.559 36H110.911L115.447 19.248H120.535L125.071 36H121.231ZM117.991 22.728H117.799L116.167 29.064H119.623L117.991 22.728ZM132.957 36H129.405V19.248H135.885C136.701 19.248 137.429 19.376 138.069 19.632C138.709 19.872 139.245 20.224 139.677 20.688C140.125 21.152 140.461 21.712 140.685 22.368C140.909 23.024 141.021 23.76 141.021 24.576C141.021 25.76 140.765 26.776 140.253 27.624C139.741 28.472 139.013 29.032 138.069 29.304L141.357 36H137.421L134.613 29.784H132.957V36ZM135.021 27C135.869 27 136.453 26.84 136.773 26.52C137.109 26.2 137.277 25.672 137.277 24.936V24.216C137.277 23.48 137.109 22.952 136.773 22.632C136.453 22.312 135.869 22.152 135.021 22.152H132.957V27H135.021ZM146.292 36V19.248H156.996V22.2H149.892V26.04H156.756V28.992H149.892V33.048H156.996V36H146.292ZM163.082 36V19.248H173.786V22.2H166.682V26.04H173.546V28.992H166.682V33.048H173.786V36H163.082ZM183.329 36H179.777V19.248H186.257C187.073 19.248 187.801 19.376 188.441 19.632C189.081 19.872 189.617 20.224 190.049 20.688C190.497 21.152 190.833 21.712 191.057 22.368C191.281 23.024 191.393 23.76 191.393 24.576C191.393 25.76 191.137 26.776 190.625 27.624C190.113 28.472 189.385 29.032 188.441 29.304L191.729 36H187.793L184.985 29.784H183.329V36ZM185.393 27C186.241 27 186.825 26.84 187.145 26.52C187.481 26.2 187.649 25.672 187.649 24.936V24.216C187.649 23.48 187.481 22.952 187.145 22.632C186.825 22.312 186.241 22.152 185.393 22.152H183.329V27H185.393Z" fill="white"/>
</svg>
